<mxfile host="app.diagrams.net" agent="Mozilla/5.0 (Macintosh; Intel Mac OS X 10_15_7) AppleWebKit/605.1.15 (KHTML, like Gecko) Version/18.1.1 Safari/605.1.15" version="24.8.4">
  <diagram name="Page-1" id="e7e014a7-5840-1c2e-5031-d8a46d1fe8dd">
    <mxGraphModel dx="1464" dy="772" grid="1" gridSize="10" guides="1" tooltips="1" connect="1" arrows="1" fold="1" page="1" pageScale="1" pageWidth="1169" pageHeight="826" background="none" math="0" shadow="0">
      <root>
        <mxCell id="0" />
        <mxCell id="1" parent="0" />
        <mxCell id="B8GyZ3eg_QmVgT3HGnKq-43" value="" style="edgeStyle=orthogonalEdgeStyle;rounded=0;orthogonalLoop=1;jettySize=auto;html=1;" edge="1" parent="1" source="B8GyZ3eg_QmVgT3HGnKq-41" target="B8GyZ3eg_QmVgT3HGnKq-42">
          <mxGeometry relative="1" as="geometry" />
        </mxCell>
        <mxCell id="B8GyZ3eg_QmVgT3HGnKq-41" value="Main Page" style="rounded=0;whiteSpace=wrap;html=1;" vertex="1" parent="1">
          <mxGeometry x="110" y="120" width="120" height="60" as="geometry" />
        </mxCell>
        <mxCell id="B8GyZ3eg_QmVgT3HGnKq-45" value="" style="edgeStyle=orthogonalEdgeStyle;rounded=0;orthogonalLoop=1;jettySize=auto;html=1;" edge="1" parent="1" source="B8GyZ3eg_QmVgT3HGnKq-42" target="B8GyZ3eg_QmVgT3HGnKq-44">
          <mxGeometry relative="1" as="geometry" />
        </mxCell>
        <mxCell id="B8GyZ3eg_QmVgT3HGnKq-42" value="Select Language Page" style="rounded=0;whiteSpace=wrap;html=1;" vertex="1" parent="1">
          <mxGeometry x="310" y="120" width="120" height="60" as="geometry" />
        </mxCell>
        <mxCell id="B8GyZ3eg_QmVgT3HGnKq-47" value="" style="edgeStyle=orthogonalEdgeStyle;rounded=0;orthogonalLoop=1;jettySize=auto;html=1;" edge="1" parent="1" source="B8GyZ3eg_QmVgT3HGnKq-44" target="B8GyZ3eg_QmVgT3HGnKq-46">
          <mxGeometry relative="1" as="geometry" />
        </mxCell>
        <mxCell id="B8GyZ3eg_QmVgT3HGnKq-44" value="Footprint Method Page" style="rounded=0;whiteSpace=wrap;html=1;" vertex="1" parent="1">
          <mxGeometry x="510" y="120" width="120" height="60" as="geometry" />
        </mxCell>
        <mxCell id="B8GyZ3eg_QmVgT3HGnKq-49" value="" style="edgeStyle=orthogonalEdgeStyle;rounded=0;orthogonalLoop=1;jettySize=auto;html=1;" edge="1" parent="1" source="B8GyZ3eg_QmVgT3HGnKq-46" target="B8GyZ3eg_QmVgT3HGnKq-48">
          <mxGeometry relative="1" as="geometry" />
        </mxCell>
        <mxCell id="B8GyZ3eg_QmVgT3HGnKq-46" value="Footprint Method Page" style="rounded=0;whiteSpace=wrap;html=1;" vertex="1" parent="1">
          <mxGeometry x="710" y="120" width="120" height="60" as="geometry" />
        </mxCell>
        <mxCell id="B8GyZ3eg_QmVgT3HGnKq-48" value="Household Footprint Page" style="rounded=0;whiteSpace=wrap;html=1;" vertex="1" parent="1">
          <mxGeometry x="910" y="120" width="120" height="60" as="geometry" />
        </mxCell>
      </root>
    </mxGraphModel>
  </diagram>
</mxfile>
